<svg xmlns="http://www.w3.org/2000/svg" xmlns:xlink="http://www.w3.org/1999/xlink" width="1920" zoomAndPan="magnify" viewBox="0 0 1440 809.999993" height="1080" preserveAspectRatio="xMidYMid meet" version="1.0"><defs><clipPath id="8a66165dc2"><path d="M 554 218 L 886 218 L 886 604.84375 L 554 604.84375 Z M 554 218 " clip-rule="nonzero"/></clipPath></defs><g clip-path="url(#8a66165dc2)"><path fill="#000000" d="M 688.71875 221.414062 C 629.507812 232.15625 577.765625 283.507812 565.195312 343.785156 C 562.828125 354.710938 559.546875 363.632812 557.726562 363.632812 C 552.804688 363.632812 553.535156 372.375 559.546875 384.210938 C 562.28125 390.039062 567.382812 404.421875 570.660156 416.625 C 576.671875 438.113281 597.988281 472.890625 605.277344 472.890625 C 611.105469 472.890625 609.46875 466.335938 599.8125 451.039062 C 590.882812 436.835938 577.585938 390.21875 581.410156 386.394531 C 584.507812 383.300781 638.980469 393.132812 650.09375 398.777344 C 665.21875 406.609375 666.855469 412.800781 679.429688 511.496094 C 690.542969 598.359375 691.453125 602.183594 699.105469 603.277344 L 707.304688 604.550781 L 707.304688 363.632812 L 645.359375 363.632812 C 575.761719 363.632812 578.496094 365.089844 592.339844 335.40625 C 647.179688 217.773438 815.886719 230.699219 854.695312 355.4375 L 857.246094 363.632812 L 730.988281 363.632812 L 730.988281 602.183594 L 739.1875 603.277344 C 743.742188 604.003906 747.386719 604.003906 747.566406 603.277344 C 747.566406 602.730469 753.03125 559.9375 759.773438 508.21875 C 774.894531 392.039062 772.890625 395.136719 839.027344 387.304688 L 859.613281 384.757812 L 856.335938 402.421875 C 852.324219 423.90625 843.945312 445.394531 834.472656 458.6875 C 826.273438 470.523438 831.554688 477.082031 841.757812 467.792969 C 851.78125 458.6875 871.089844 416.441406 873.640625 398.414062 C 874.917969 389.492188 878.015625 381.480469 880.929688 380.386719 C 887.304688 377.835938 887.304688 363.632812 880.929688 363.632812 C 877.648438 363.632812 875.101562 357.441406 873.824219 345.789062 C 864.351562 266.390625 774.167969 205.753906 688.71875 221.414062 Z M 688.71875 221.414062 " fill-opacity="1" fill-rule="nonzero"/></g></svg>